<svg width="190" height="233" viewBox="0 0 190 233" fill="none" xmlns="http://www.w3.org/2000/svg">
<g clip-path="url(#clip0_30_8622)">
<path d="M135.863 146.32C133.488 145.14 130.754 144.905 128.213 145.664C125.673 146.423 123.515 148.119 122.177 150.409C121.202 152.101 120.169 153.737 119.079 155.315C117.239 158.153 115.257 160.896 113.14 163.534C109.133 168.452 103.337 171.577 97.026 172.223C90.7152 172.868 84.4064 170.982 79.4864 166.977C78.2329 165.94 77.0802 164.788 76.0436 163.534C73.9779 160.952 71.9983 158.241 70.1047 155.444C60.4378 140.543 53.7448 123.913 50.3945 106.469C48.4652 96.9037 47.2426 87.2089 46.7365 77.4637C46.4083 71.2069 48.3139 65.0371 52.1133 60.0553C55.9128 55.0734 61.3588 51.6037 67.4796 50.2654H67.7808C76.6511 48.3996 85.6372 47.1343 94.6779 46.4783C103.703 47.1221 112.675 48.3729 121.532 50.2223H121.79C127.911 51.5706 133.353 55.0504 137.144 60.0405C140.936 65.0305 142.831 71.2058 142.49 77.4637C142.49 79.3572 142.49 81.2938 142.103 83.3165C141.973 84.6919 142.118 86.0794 142.53 87.3981C142.941 88.7169 143.611 89.9406 144.5 90.998C145.389 92.0553 146.48 92.9252 147.709 93.557C148.937 94.1887 150.279 94.5697 151.657 94.6778L177.133 96.7005C178.502 96.8183 179.88 96.6642 181.189 96.2471C182.498 95.8299 183.711 95.158 184.759 94.27C185.807 93.382 186.669 92.2954 187.296 91.0729C187.922 89.8503 188.3 88.516 188.409 87.1466C189.631 72.1468 189.516 57.068 188.064 42.0887C187.73 38.5813 186.692 35.1772 185.014 32.0794C183.335 28.9815 181.051 26.2531 178.295 24.0569C154.368 5.20742 110.73 0.989958 98.1207 0.000146151C95.7856 -0.171924 93.441 -0.171924 91.1059 0.000146136C78.4966 0.989958 34.8588 5.20742 10.9312 24.0569C8.17722 26.2576 5.89064 28.9862 4.20569 32.0827C2.52073 35.1792 1.47134 38.5811 1.11913 42.0887C-1.97941 73.8487 -4.90581 177.951 82.8862 229.163C86.5113 231.276 90.6323 232.39 94.8285 232.39C99.0246 232.39 103.146 231.276 106.771 229.163C130.24 215.516 149.711 195.941 163.233 172.4C163.93 171.213 164.387 169.901 164.576 168.538C164.765 167.175 164.683 165.788 164.335 164.457C163.988 163.126 163.381 161.876 162.549 160.78C161.717 159.684 160.677 158.762 159.489 158.069L158.843 157.725L135.863 146.32Z" fill="#FDB235"/>
</g>
<defs>
<clipPath id="clip0_30_8622">
<rect width="189.226" height="232.391" fill="white"/>
</clipPath>
</defs>
</svg>
