<svg xmlns="http://www.w3.org/2000/svg" width="82" height="25" viewBox="0 0 82 25" fill="none">
  <path d="M3.09 8.10031C3.09 9.10031 3.37 9.18031 4.48 9.22031V9.58031H0.0599976V9.22031C0.979998 9.18031 1.26 9.06031 1.26 8.10031V1.73031C1.26 0.730308 0.980001 0.650308 0.110001 0.610308V0.250309H7.92L7.96 2.32031H7.56C7.24 1.28031 6.88 0.970309 5.05 0.970309H3.62C3.18 0.970309 3.1 1.05031 3.1 1.45031V4.40031H4.7C6.17 4.40031 6.49 4.12031 6.65 3.16031H7.01V6.47031H6.65C6.45 5.35031 5.89 5.08031 4.7 5.08031H3.1V8.11031L3.09 8.10031ZM12.29 8.10031C12.29 9.10031 12.57 9.18031 13.68 9.22031V9.58031H9.07V9.22031C10.19 9.18031 10.46 9.06031 10.46 8.10031V1.73031C10.46 0.730308 10.22 0.650308 9.07 0.610308V0.250309H13.69V0.610308C12.57 0.650308 12.3 0.770308 12.3 1.73031V8.10031H12.29ZM23.32 1.97031C23.32 1.05031 23.08 0.690309 22.05 0.580309V0.220309H25.36V0.580309C24.32 0.700309 24.09 1.06031 24.09 1.97031V9.78031H23.61L17.24 2.41031V7.83031C17.24 8.75031 17.48 9.11031 18.51 9.22031V9.58031H15.2V9.22031C16.24 9.10031 16.47 8.74031 16.47 7.83031V1.54031C16.23 1.03031 15.75 0.680309 15.2 0.580309V0.220309H17.75L23.33 6.67031V1.97031H23.32ZM28.3 6.23031L29.69 2.53031L31.08 6.23031H28.3ZM34.99 9.58031V9.22031C34.27 9.22031 34.11 8.94031 33.75 8.07031L30.44 0.0203083H30L26.58 8.35031C26.41 8.85031 25.95 9.20031 25.43 9.23031V9.59031H28.42V9.23031C27.78 9.23031 27.46 9.07031 27.46 8.63031C27.58 8.04031 27.75 7.47031 27.98 6.92031H31.37C31.62 7.47031 31.8 8.04031 31.93 8.63031C31.93 9.07031 31.57 9.23031 30.93 9.23031V9.59031H34.99V9.58031ZM44.07 1.95031C44.07 1.03031 43.83 0.670308 42.8 0.560308V0.200309H46.11V0.560308C45.07 0.680308 44.84 1.04031 44.84 1.95031V9.76031H44.36L38 2.39031V7.81031C38 8.73031 38.24 9.09031 39.27 9.20031V9.56031H35.96V9.20031C37 9.08031 37.23 8.72031 37.23 7.81031V1.52031C36.99 1.01031 36.51 0.660308 35.96 0.560308V0.200309H38.51L44.09 6.65031V1.95031H44.07ZM55.89 7.37031C55.1 8.93031 53.46 9.89031 51.71 9.80031C48.68 9.80031 46.85 7.81031 46.85 4.82031C46.88 2.13031 49.08 -0.0296912 51.77 0.000308755H51.79C52.67 0.100309 53.54 0.290308 54.38 0.560308C54.66 0.560308 54.74 0.400309 54.98 0.000308755H55.46L55.66 3.11031H55.26C54.89 1.67031 53.6 0.640308 52.11 0.600308C49.92 0.600308 48.96 2.99031 48.96 4.78031C48.96 7.29031 50.03 9.00031 52.39 9.00031C53.73 8.95031 54.95 8.21031 55.62 7.05031L55.9 7.37031H55.89ZM60.39 8.09031C60.39 9.09031 60.67 9.17031 61.78 9.21031V9.57031H57.17V9.21031C58.29 9.17031 58.56 9.05031 58.56 8.09031V1.72031C58.56 0.720309 58.28 0.640308 57.17 0.600308V0.240309H61.79V0.600308C60.67 0.640308 60.4 0.760309 60.4 1.72031V8.09031H60.39ZM65.6 6.22031L66.99 2.52031L68.38 6.22031H65.6ZM72.29 9.57031V9.21031C71.57 9.21031 71.41 8.93031 71.05 8.06031L67.74 0.010309H67.3L63.88 8.34031C63.71 8.84031 63.25 9.19031 62.73 9.22031V9.58031H65.72V9.22031C65.08 9.22031 64.76 9.06031 64.76 8.62031C64.88 8.03031 65.05 7.46031 65.28 6.91031H68.67C68.91 7.46031 69.1 8.03031 69.23 8.62031C69.23 9.06031 68.87 9.22031 68.23 9.22031V9.58031H72.29V9.57031ZM73.13 9.57031V9.21031C74.01 9.17031 74.28 9.05031 74.28 8.09031V1.72031C74.28 0.720309 74 0.640308 73.13 0.600308V0.240309H77.43V0.600308C76.39 0.640308 76.16 0.760309 76.16 1.72031V8.29031C76.16 8.85031 76.32 9.05031 77.36 9.05031C79.03 9.05031 80.03 8.73031 80.82 7.10031H81.18L80.54 9.61031H73.13V9.57031ZM2.07 24.3103C3.14 24.2703 3.38 24.1503 3.38 23.1903V16.0203H2.23C1.16 16.0203 0.719998 16.4603 0.399998 17.7303H0L0.239998 15.3403H8.45L8.69 17.7303H8.29C7.97 16.4503 7.57 16.0203 6.46 16.0203H5.31V23.1903C5.31 24.1903 5.59 24.2703 6.63 24.3103V24.6703H2.13V24.3103H2.07ZM12.87 23.1903C12.87 24.1903 13.15 24.2703 14.26 24.3103V24.6703H9.64V24.3103C10.76 24.2703 11.03 24.1503 11.03 23.1903V16.8203C11.03 15.8203 10.75 15.7403 9.64 15.7003V15.3403H14.27V15.7003C13.15 15.7403 12.88 15.8603 12.88 16.8203V23.1903H12.87ZM24.06 15.3003H27.29V15.6603C26.41 15.7003 26.14 15.8203 26.14 16.7803V23.1503C26.14 24.1503 26.42 24.2303 27.29 24.2703V24.6303H23.06V24.2703C23.98 24.2303 24.26 24.1103 24.26 23.1503V16.5803H24.22L21.11 24.7503H20.67L17.6 16.5803H17.56V22.8703C17.56 23.7903 17.8 24.1503 18.83 24.2603V24.6203H15.52V24.2603C16.56 24.1403 16.79 23.7803 16.79 22.8703V16.5003C16.79 15.8603 16.51 15.6203 15.52 15.6203V15.2603H18.91L21.38 21.7503L24.05 15.3003H24.06ZM28.6 24.6603V24.3003C29.48 24.2603 29.75 24.1403 29.75 23.1803V16.8103C29.75 15.8103 29.47 15.7303 28.6 15.6903V15.3303H36.41L36.45 17.4003H36.05C35.73 16.3603 35.37 16.0503 33.54 16.0503H32.11C31.67 16.0503 31.59 16.1303 31.59 16.5303V19.4803H33.18C34.65 19.4803 34.97 19.2003 35.13 18.2403H35.49V21.5503H35.13C34.93 20.4303 34.37 20.2003 33.18 20.2003H31.59V23.4303C31.59 23.9903 31.75 24.1903 33.42 24.1903C35.09 24.1903 36.09 23.8703 36.88 22.2403H37.24L36.6 24.7503H28.59V24.6703H28.6V24.6603ZM38.48 21.6903H38.84C39.22 23.0503 40.38 24.0603 41.79 24.2403C42.6 24.3103 43.31 23.7203 43.38 22.9103V22.6903C43.38 20.5403 38.52 20.1403 38.52 17.4703C38.63 16.0903 39.8 15.0403 41.19 15.0803C42.04 15.1603 42.88 15.3203 43.7 15.5603C43.96 15.5603 44.17 15.3403 44.18 15.0803H44.54V18.0703H44.18C43.94 16.7803 42.86 15.8203 41.55 15.7203C40.84 15.6403 40.21 16.1403 40.12 16.8503V17.0403C40.12 18.9503 44.98 18.9903 44.98 22.3003C44.94 23.7703 43.71 24.9403 42.24 24.9003H42.07C40.44 24.9003 40 24.3403 39.36 24.3403C39.12 24.3403 38.96 24.5003 38.88 24.8203H38.4L38.48 21.7103V21.6903Z" fill="#02033B"/>
</svg>