<svg xmlns="http://www.w3.org/2000/svg" width="157" height="54" viewBox="0 0 157 54" fill="none">
  <g clip-path="url(#clip0_30_8639)">
    <path d="M31.484 33.9071C30.9294 33.6381 30.2929 33.5916 29.7051 33.7771C29.1172 33.9625 28.6226 34.3658 28.3227 34.9043C28.0834 35.2933 27.844 35.6722 27.5947 36.0412C27.167 36.682 26.7077 37.301 26.2185 37.8961C25.6954 38.5294 25.0389 39.0393 24.2958 39.3893C23.5528 39.7393 22.7416 39.9208 21.9202 39.9208C21.0989 39.9208 20.2877 39.7393 19.5446 39.3893C18.8016 39.0393 18.1451 38.5294 17.622 37.8961C17.1433 37.2978 16.6846 36.6695 16.2458 36.0213C14.0037 32.5703 12.4557 28.7155 11.6883 24.6723C11.233 22.4567 10.9463 20.2097 10.8306 17.9508C10.7545 16.5009 11.1961 15.0711 12.0766 13.9166C12.957 12.7622 14.2191 11.9581 15.6374 11.648H15.7172C17.7694 11.2157 19.8485 10.9225 21.9402 10.7704C24.0316 10.9196 26.1107 11.2095 28.1631 11.638H28.2329C29.6494 11.9525 30.9082 12.7598 31.7849 13.9159C32.6616 15.0721 33.0992 16.502 33.0198 17.9508C33.0198 18.3895 33.0198 18.8383 32.9301 19.307C32.9 19.6258 32.9336 19.9473 33.029 20.2529C33.1244 20.5585 33.2796 20.8421 33.4857 21.0871C33.6917 21.3321 33.9445 21.5337 34.2292 21.6801C34.5139 21.8265 34.8249 21.9148 35.144 21.9398L41.0478 22.4085C41.365 22.4358 41.6844 22.4001 41.9877 22.3035C42.291 22.2068 42.5722 22.0511 42.815 21.8453C43.0579 21.6395 43.2576 21.3878 43.4028 21.1045C43.5479 20.8211 43.6356 20.5119 43.6607 20.1946C43.9416 16.7221 43.9182 13.2316 43.5909 9.76318C43.5093 8.95035 43.2661 8.16202 42.8756 7.44447C42.4852 6.72691 41.9553 6.09459 41.3171 5.58462C35.7723 1.20661 25.67 0.229286 22.738 -8.54861e-05C22.1969 -0.0399597 21.6536 -0.0399597 21.1125 -8.5488e-05C18.1905 0.229286 8.07815 1.20661 2.53334 5.57465C1.8949 6.08358 1.36544 6.71583 0.976516 7.43372C0.587591 8.1516 0.347155 8.94043 0.269537 9.7532C-0.458469 17.113 -1.12664 41.237 19.1578 53.1045C19.9979 53.5942 20.9528 53.8522 21.9252 53.8522C22.8976 53.8522 23.8526 53.5942 24.6926 53.1045C30.1506 49.9469 34.6832 45.4108 37.8366 39.9505C38.1594 39.3935 38.2483 38.7312 38.0838 38.1088C37.9193 37.4863 37.5149 36.9544 36.959 36.6296L36.8095 36.5498L31.484 33.9071Z" fill="#FFC247"/>
    <path d="M95.8867 44.4582C89.7934 44.4582 85.4253 40.17 85.4253 33.7675C85.3814 32.4155 85.6048 31.0681 86.0826 29.8025C86.5603 28.537 87.2831 27.3781 88.2096 26.3924C89.136 25.4067 90.2478 24.6134 91.4814 24.0582C92.7149 23.5029 94.0459 23.1965 95.398 23.1566H96.0562C102.538 23.1566 106.159 27.8238 106.159 34.2761C106.159 34.5055 106.159 34.9742 106.159 35.4728H91.1995C91.3254 36.6532 91.8845 37.745 92.7686 38.5371C93.6528 39.3292 94.7993 39.7653 95.9864 39.7611C96.7382 39.8246 97.4935 39.6906 98.1775 39.3722C98.8615 39.0538 99.4503 38.5622 99.8857 37.9461H105.869C104.633 41.7257 101.082 44.4682 95.9465 44.4682M100.494 31.773C100.43 30.6258 99.9252 29.5476 99.0854 28.7635C98.2455 27.9794 97.1353 27.5499 95.9864 27.5645C94.8067 27.5402 93.6608 27.9589 92.7746 28.7379C91.8885 29.517 91.3265 30.5999 91.1995 31.773H100.494Z" fill="#02033B"/>
    <path d="M113.808 26.9761C114.965 24.5129 117.278 23.5455 119.901 23.4657V29.0604C118.845 29.0113 117.789 29.1291 116.77 29.4094C115.344 29.8682 113.997 30.8355 113.997 35.0839V43.7701H108.014V23.8247H113.798L113.808 26.9761Z" fill="#02033B"/>
    <path d="M133.285 39.0331H134.481L136.536 43.7402H131.639C125.975 43.8599 124.818 40.4592 124.818 35.8319V29.0704H121.457V23.9345H124.818V19.4467L130.642 16.8638V23.9345H134.731V29.1103H130.642V34.8645C130.642 37.5671 130.752 39.063 133.265 39.063" fill="#02033B"/>
    <path d="M135.549 33.7675C135.549 26.9761 140.635 23.1965 146.309 23.1965C151.984 23.1965 157 26.9761 157 33.7675C157 40.5589 151.944 44.4184 146.309 44.4184C140.675 44.4184 135.549 40.5988 135.549 33.7675ZM146.309 39.7511C149.361 39.7511 151.296 37.0485 151.296 33.7675C151.296 30.4865 149.371 27.7839 146.309 27.7839C143.248 27.7839 141.323 30.4865 141.323 33.7675C141.323 37.0485 143.258 39.7511 146.309 39.7511Z" fill="#02033B"/>
    <path d="M70.9461 44.4582C63.0378 44.4582 56.9844 39.0131 56.9844 30.2172C57.0143 21.5809 63.1076 15.9563 71.0558 15.9563C77.9569 15.9563 82.4746 19.347 84.2098 25.4503H78.1165C76.7303 22.3588 74.1274 21.2019 71.0558 21.2019C66.6978 21.2019 63.1874 24.832 63.1874 30.2671C63.1874 35.7022 66.7377 39.2425 71.0558 39.2425C74.8754 39.2425 76.9597 37.7765 78.0367 35.044H84.0901C82.5543 41.1373 77.6478 44.4882 70.8963 44.4882" fill="#02033B"/>
  </g>
  <defs>
    <clipPath id="clip0_30_8639">
      <rect width="157" height="53.8525" fill="white"/>
    </clipPath>
  </defs>
</svg>