<svg xmlns="http://www.w3.org/2000/svg" width="88" height="20" viewBox="0 0 88 20" fill="none">
  <path fill-rule="evenodd" clip-rule="evenodd" d="M87.26 0.393386H82.26C81.96 0.663386 81.62 0.933386 81.26 1.18339C80.97 1.46339 80.63 1.69339 80.26 1.86339C80.37 1.37339 80.46 0.883386 80.52 0.393386H75.59C75.32 0.673386 75.02 0.913386 74.69 1.11339C74.36 0.843386 73.99 0.633386 73.6 0.473386C72.94 0.393386 72.26 0.393386 71.6 0.473386H64.98C64.64 0.773386 64.29 1.04339 63.92 1.30339C62.39 -0.256614 58.65 -0.296614 56.44 0.553386C56.27 0.553386 56.44 0.323386 56.18 0.403386H51.32C50.56 0.953386 50 1.58339 49.14 2.05339C49.07 1.65339 49.14 0.863386 49.03 0.393386H44.03C43.73 0.673386 43.4 0.903386 43.03 1.07339C43.03 0.783386 43.18 0.653386 43.21 0.393386H38.79C38.24 0.853386 37.64 1.25339 37 1.59339C36.98 1.19339 36.95 0.793386 36.89 0.393386H34.69C33.97 0.313386 33.23 0.313386 32.51 0.393386C32 0.543386 31.67 1.27339 31.12 1.33339C31.06 1.01339 31.02 0.683386 31 0.353386C26.66 0.373386 20.45 0.183386 15.8 0.393386C15.35 0.343386 14.9 0.313386 14.45 0.323386C13.97 0.423386 13.39 1.32339 12.9 1.32339C12.82 0.993386 12.78 0.623386 12.68 0.323386H8C6.94 1.06339 6 1.95339 5 2.72339C4.62 3.04339 4.2 3.20339 4 3.55339C3.87 4.01339 3.78 4.48339 3.72 4.95339C3.42 6.03339 3.19 6.95339 2.93 7.95339C2 11.7534 0.8 15.7534 0 19.4034H4.18C4.87 18.8234 5.59 18.2934 6.36 17.8134C6.5 18.3034 6.48 18.8134 6.62 19.4034H9.62C9.95 19.4334 10.29 19.4334 10.62 19.4034C10.95 19.3234 11.08 18.9034 11.37 18.8334C11.58 18.9534 11.65 19.2134 11.79 19.4034C13.98 19.2534 16.53 19.4534 18.22 19.4034C18.79 19.4534 19.35 19.4534 19.92 19.4034C20.23 19.2434 20.52 19.0334 20.78 18.8034C21.04 18.5534 21.34 18.3634 21.68 18.2334C21.68 18.6834 21.54 19.0834 21.57 19.4034H24.92C25.11 19.4034 25.29 19.4034 25.48 19.4034C25.96 19.3434 26.48 18.7934 26.87 18.5334C27.22 18.1934 27.65 17.9334 28.12 17.7834C28.03 18.3334 27.86 18.7834 27.78 19.3634H29.73C30.44 19.4434 31.17 19.4434 31.88 19.3634C32.2 19.2934 32.61 18.8334 32.93 18.5634C34 17.7534 35.2 16.9534 36.11 16.1934C37.48 13.1934 38.97 10.1134 40.37 7.19339C40.57 6.77339 40.65 6.25339 41.04 5.95339C41.29 7.66339 41.51 9.37339 41.68 10.9534C41.8 11.5034 41.86 12.0534 41.87 12.6134C41.76 13.1734 41.61 13.7234 41.42 14.2634L40.06 19.3134H44.65C45.7 18.5934 46.59 17.7334 47.65 17.0534C48.33 18.4834 49.75 19.4134 51.34 19.4634C52.88 19.5734 54.42 19.2434 55.78 18.5234C56.34 18.1734 56.94 17.8734 57.55 17.6234C57.5 18.2234 57.35 18.7234 57.29 19.3134H61.58C62.09 18.9234 62.63 18.5734 63.19 18.2634C63.19 18.7034 63.02 18.8834 63.01 19.2634C65.09 19.3234 67.5 19.2634 69.78 19.2634C70.57 19.3434 71.36 19.3434 72.15 19.2634C72.52 19.0934 72.85 18.8634 73.15 18.5834C73.51 18.3334 73.76 17.9834 74.15 17.9134C74.36 18.3434 74.53 18.7934 74.64 19.2634H79.64C80.98 18.2134 82.25 17.0834 83.64 16.0634C82.97 13.2134 82.33 10.3434 81.72 7.44339C83.52 5.37339 85.3 3.00339 87 0.843386C87.08 0.743386 87.31 0.563386 87.22 0.393386M10.83 15.4834C10.43 12.7534 10.25 10.0334 9.83 7.35339C9 9.95339 8.34 12.8734 7.45 15.4834C6.55 15.4834 5.54 15.5334 4.7 15.4834C5.85 10.5834 7.16 5.89339 8.35 1.07339C8.37 1.01339 8.41 0.973386 8.47 0.953386H12.19C12.49 3.26339 12.71 5.65339 13.06 7.95339C13.83 5.68339 14.39 3.21339 15.17 0.953386C16.11 0.913386 17.06 0.943386 18 1.03339C16.68 5.95339 15.42 10.6634 14 15.4834H10.83ZM35.52 15.4834C34.48 15.5434 33.44 15.5434 32.4 15.4834C32.58 12.7134 32.89 10.1234 33.11 7.32339C32.71 7.95339 32.37 8.62339 32.11 9.32339C31.11 11.3234 30.24 13.4734 29.29 15.5334H26.09C26.17 11.5334 26.56 7.43339 26.73 3.53339H22.44C21.99 4.53339 21.74 5.77339 21.35 6.84339C22.47 6.90339 23.97 6.84339 25.26 6.84339C25.15 7.61339 24.8 8.45339 24.62 9.29339H20.75C20.33 10.4534 20.06 11.7734 19.7 12.9834C21.1 12.9834 22.61 12.9334 23.95 12.9834C23.69 13.8134 23.4 14.6134 23.12 15.4234H15.67C16.86 10.5234 18.16 5.73339 19.44 0.933386C22.94 0.873386 26.74 0.883386 30.44 0.933386C30.28 3.29339 30.07 5.71339 29.84 8.00339C30.12 7.82339 30.2 7.46339 30.33 7.18339C31.33 5.18339 32.26 2.99339 33.23 0.933386H36.43C36.31 3.38339 35.98 5.74339 35.86 8.12339C37.13 5.95339 38.2 3.39339 39.4 1.00339C40.26 1.00339 41.29 0.953386 42.33 1.00339C40.07 5.83339 37.8 10.6634 35.52 15.4834ZM50.27 8.71339C50 9.05339 49.76 9.42339 49.55 9.80339C49.39 10.3034 49.27 10.8034 49.17 11.3134C48.82 12.6434 48.37 14.0834 47.93 15.5634H44.73C45.03 13.6534 45.73 11.7334 46.16 9.84339C46.18 9.37339 46.13 8.90339 46 8.45339C45.68 5.95339 45.32 3.54339 45 1.03339C46.22 0.973386 47 1.03339 48.38 1.03339C48.52 2.74339 48.67 4.53339 48.76 6.23339C49.89 4.69339 50.91 2.72339 52.03 1.03339C52.98 1.03339 54.25 0.983386 55.31 1.03339C53.74 3.58339 51.92 6.03339 50.26 8.67339M61.06 13.0734C60.64 13.9334 59.99 14.6634 59.19 15.1834C57.41 16.1834 55.31 16.4234 53.35 15.8634C52.89 15.6934 51.89 15.1734 51.74 14.5434C51.42 13.2634 52.06 11.8534 52.33 10.6734C52.77 8.77339 53.33 6.67339 53.88 4.73339C54.03 3.99339 54.32 3.28339 54.75 2.65339C55.69 1.34339 57.19 0.533386 58.81 0.473386C61.08 0.263386 63.3 0.473386 63.66 2.31339C63.71 2.64339 63.71 2.98339 63.66 3.31339C63.52 4.16339 63.32 5.01339 63.06 5.83339C62.64 7.40339 62.2 9.10339 61.75 10.7234C61.5 11.6134 61.32 12.5134 61.07 13.1334M71.19 15.5434C70 15.5434 69.07 15.6034 67.73 15.5434C67.88 14.3734 68.35 12.8134 68.67 11.4334C68.77 10.9834 69.04 10.4334 68.93 10.0834C68.71 9.44339 67.52 9.74339 66.79 9.67339C66.11 11.5434 65.65 13.6734 65.05 15.5834C63.93 15.5334 62.76 15.5834 61.74 15.5834C62.26 13.1134 63 10.7234 63.62 8.31339C64.24 5.90339 64.81 3.47339 65.54 1.12339H70.89C71.89 1.12339 73.41 1.03339 74.01 1.46339C75.12 2.27339 74.42 3.85339 74.08 5.15339C73.94 5.77339 73.76 6.39339 73.55 6.99339C73.22 7.81339 72.32 8.08339 71.55 8.49339C72.12 8.79339 72.77 8.89339 72.71 9.81339C72.63 10.3234 72.5 10.8334 72.34 11.3234C71.98 12.6334 71.42 14.4434 71.13 15.6434M83.53 4.31339C82.71 5.31339 81.9 6.41339 81.09 7.47339C81.65 10.2134 82.25 12.7534 82.78 15.4734C81.26 15.5534 80.16 15.5434 78.98 15.4734C78.56 13.3434 78.16 11.2034 77.74 9.07339C76.99 11.0734 76.45 13.3334 75.82 15.4734H72.24C72.49 14.2834 72.8 13.1134 73.18 11.9534C73.55 10.7734 73.81 9.56339 74.18 8.37339C74.55 7.18339 74.92 5.97339 75.18 4.76339C75.44 3.55339 75.88 2.25339 76.24 1.11339C77.38 1.02339 78.52 1.02339 79.66 1.11339C79.26 2.75339 78.84 4.25339 78.46 5.81339C78.89 5.48339 79.26 5.09339 79.58 4.65339C80.64 3.50339 81.7 2.22339 82.78 1.07339C83.83 1.01339 84.89 1.01339 85.94 1.07339C85.22 2.22339 84.35 3.25339 83.53 4.31339Z" fill="#02033B"/>
</svg>