<svg xmlns="http://www.w3.org/2000/svg" width="130" height="95" viewBox="0 0 130 95" fill="none">
  <g clip-path="url(#clip0_30_8300)">
    <path fill-rule="evenodd" clip-rule="evenodd" d="M22.6695 80.3846C22.1816 78.0648 20.29 77.4475 18.1694 77.2484C11.3097 76.6112 10.0951 81.7585 10.0951 83.9189C10.0951 87.6325 11.1703 90.699 17.9105 90.699C19.145 90.699 22.5799 89.4246 22.5799 87.3438H32.2571C31.8688 93.5165 21.5046 94.9999 16.9945 94.9999C7.63592 94.9999 -0.378645 93.2477 0.0096386 84.0484C0.288406 77.4475 6.5109 72.818 18.926 73.0968C25.8255 73.2561 32.4462 75.4165 32.4761 80.4144L22.6695 80.3846Z" fill="#02033B"/>
    <path fill-rule="evenodd" clip-rule="evenodd" d="M119.661 80.3846C119.184 78.0648 117.292 77.4475 115.171 77.2484C108.312 76.6112 107.097 81.7585 107.097 83.9189C107.097 87.6325 108.172 90.699 114.912 90.699C116.147 90.699 119.572 89.4246 119.572 87.3438H129.269C128.871 93.5165 118.517 94.9999 113.996 94.9999C104.638 94.9999 96.6233 93.2477 97.0116 84.0484C97.2904 77.4475 103.513 72.818 115.928 73.0968C122.827 73.2561 129.448 75.4165 129.478 80.4144L119.661 80.3846Z" fill="#02033B"/>
    <path fill-rule="evenodd" clip-rule="evenodd" d="M34.1484 73.515H46.7228L57.4554 88.6083H57.535V73.515H65.5994V94.4226H53.5527L42.3024 79.3691H42.2128V94.4425H34.1484V73.515Z" fill="#02033B"/>
    <path fill-rule="evenodd" clip-rule="evenodd" d="M68.0879 73.515H83.3504C90.6979 73.515 95.0089 75.5659 95.0089 78.6722C95.0089 80.5041 93.2068 82.7741 89.1747 83.4411V83.5009C94.0232 83.7796 95.8153 86.856 95.8153 88.6979C95.8153 92.3916 91.6039 94.4425 83.4002 94.4425H68.0879V73.515ZM76.9189 81.6391H79.4576C83.3604 81.6391 85.4312 81.3305 85.4312 79.7076C85.4312 78.0848 83.7088 77.3879 80.2043 77.3879H76.9288V81.6391H76.9189ZM76.9189 90.0519H79.4576C84.1568 90.0519 85.8792 89.5541 85.8792 87.9313C85.8792 86.3085 83.7088 85.6215 80.1944 85.6215H76.9288V90.0519H76.9189Z" fill="#02033B"/>
    <path fill-rule="evenodd" clip-rule="evenodd" d="M108.161 41.4269L72.1699 65.5005L84.2963 36.6779L90.0409 23.2672C92.291 18.9662 96.7015 16.2183 101.55 16.0889C106.11 16.059 110.361 18.3887 112.78 22.2517C115.429 26.2341 115.578 32.6855 112.93 36.6878C111.685 38.5795 110.062 40.1923 108.171 41.4368" fill="#02033B"/>
    <path fill-rule="evenodd" clip-rule="evenodd" d="M90.2405 18.6973L72.4392 60.7812L71.6825 56.1915L66.2963 21.6941C66.0375 19.7029 66.9435 17.7415 68.626 16.6364L71.1748 15.1131C71.3241 14.5855 70.5774 14.4063 70.229 14.237L65.251 14.1872C64.6038 7.02889 69.8805 0.70684 77.0388 0.0497453C79.1396 -0.139418 81.2602 0.179173 83.2016 0.995564C88.0303 3.12614 91.1863 7.85524 91.3058 13.1319C91.3058 15.0335 90.9474 16.9251 90.2405 18.6873" fill="#02033B"/>
    <path fill-rule="evenodd" clip-rule="evenodd" d="M56.052 60.9306L38.5295 18.7471C36.6279 14.008 37.4443 8.61186 40.66 4.64938C43.9256 0.816326 49.1027 -0.796543 53.9712 0.487779C58.4912 1.82188 61.9957 5.40603 63.2203 9.95592C63.6285 11.7082 63.738 13.5102 63.5389 15.3023L56.052 60.9306Z" fill="#02033B"/>
    <path fill-rule="evenodd" clip-rule="evenodd" d="M18.5968 39.9036C15.0724 36.9367 13.3102 32.3669 13.9374 27.8071C14.6244 22.7295 18.0791 18.4484 22.8978 16.6962C27.5572 15.1829 32.6746 16.4274 36.1194 19.912C37.4435 21.2461 38.4889 22.839 39.1958 24.5813L56.1209 65.5701L18.5968 39.9036Z" fill="#02033B"/>
    <path fill-rule="evenodd" clip-rule="evenodd" d="M14.7453 69.8511C10.2054 69.4131 6.22302 66.6254 4.25173 62.5036C2.05146 57.8343 2.56917 52.3386 5.60574 48.157C8.87131 44.2443 13.5705 42.2731 18.3594 43.2487C20.1813 43.5873 21.9236 44.314 23.4568 45.3594L59.8957 69.8511H14.7453Z" fill="#02033B"/>
    <path fill-rule="evenodd" clip-rule="evenodd" d="M113.678 69.8511C118.228 69.423 122.22 66.6254 124.171 62.4937C126.372 57.8243 125.854 52.3286 122.827 48.157C119.562 44.2443 114.862 42.2731 110.064 43.2487C108.242 43.5972 106.499 44.314 104.966 45.3594L68.5273 69.8511H113.678Z" fill="#02033B"/>
  </g>
  <defs>
    <clipPath id="clip0_30_8300">
      <rect width="129.428" height="95" fill="white"/>
    </clipPath>
  </defs>
</svg>